<?xml version="1.0" encoding="UTF-8"?>
<svg width="128mm" height="36mm" version="1.1" viewBox="0 0 128 36" xmlns="http://www.w3.org/2000/svg">
<g>
<rect x="0" y="0" width="128" height="36" rx="4" ry="4">
</g>
<g transform="translate(90)">
<path d="m19.919 17.5v-2l12.004 3.4424 1.63e-4 2.9603c0 0.41966-0.22742 0.79776-0.7463 1.0973l-5.1962 3c-0.86602 0.5-2.5981 0.5-3.4641 0l-6.9282-4c-0.86602-0.5-2.5981-0.5-3.4641 0l-3.4641 2-1.7321-1c-0.51888-0.29957-0.7463-0.67767-0.7463-1.0973l-0.00206-2.9672z" fill="#1f4766"/>
<path d="m19.919 15.5 1.7321-1c3.4641-2 12.99 3.5 9.5263 5.5l-5.1962 3c-0.86602 0.5-2.5981 0.5-3.4641 0l-6.9282-4c-0.86602-0.5-2.5981-0.5-3.4641 0l-3.4641 2-1.7321-1c-3.4641-2 6.0622-7.5 9.5263-5.5l7.7942 4.5 0.86602-0.5z" fill="#3476aa"/>
<ellipse cx="24.249" cy="16" rx=".86603" ry=".5" fill="#1f4766" fill-rule="evenodd"/>
<path d="m19.919 12.5v-2l12.004 3.4424 1.63e-4 2.9603c0 0.41966-0.22742 0.79776-0.7463 1.0973l-5.1962 3c-0.86602 0.5-2.5981 0.5-3.4641 0l-6.9282-4c-0.86602-0.5-2.5981-0.5-3.4641 0l-3.4641 2-1.7321-1c-0.51888-0.29957-0.7463-0.67767-0.7463-1.0973l-0.00206-2.9672z" fill="#1f4766"/>
<path d="m19.919 10.5 1.7321-1c3.4641-2 12.99 3.5 9.5263 5.5l-5.1962 3c-0.86602 0.5-2.5981 0.5-3.4641 0l-6.9282-4c-0.86602-0.5-2.5981-0.5-3.4641 0l-3.4641 2-1.7321-1c-3.4641-2 6.0622-7.5 9.5263-5.5l7.7942 4.5 0.86602-0.5z" fill="#3476aa"/>
<ellipse cx="24.249" cy="11" rx=".86603" ry=".5" fill="#1f4766" fill-rule="evenodd"/>
<path d="m19.919 7.5v-2l12.004 3.4424 1.63e-4 2.9603c0 0.41966-0.22742 0.79776-0.7463 1.0973l-5.1962 3c-0.86602 0.5-2.5981 0.5-3.4641 0l-6.9282-4c-0.86602-0.5-2.5981-0.5-3.4641 0l-3.4641 2-1.7321-1c-0.51888-0.29957-0.7463-0.67767-0.7463-1.0973l-0.00206-2.9672z" fill="#1f4766"/>
<path d="m19.919 5.5 1.7321-1c3.4641-2 12.99 3.5 9.5263 5.5l-5.1962 3c-0.86602 0.5-2.5981 0.5-3.4641 0l-6.9282-4c-0.86602-0.5-2.5981-0.5-3.4641 0l-3.4641 2-1.7321-1c-3.4641-2 6.0622-7.5 9.5263-5.5l7.7942 4.5 0.86602-0.5z" fill="#3476aa"/>
<ellipse cx="24.249" cy="6" rx=".86603" ry=".5" fill="#1f4766" fill-rule="evenodd"/>
<path d="m18.187 30.5-1.732 1c-2.9452 1.7004-10.273-2.0206-10.273-4.4027l4.458e-4 -2.9823 7.6741-3.1151 8.6603 4 9.4076-0.90562-0.0011 3.0029c0 2.3821-7.3274 6.1031-10.273 4.4027l-3.4641-2z" fill="#997d25"/>
<path d="m18.187 27.5-1.732 1c-3.4641 2-12.99-3.5-9.5263-5.5l5.1962-3c0.86602-0.5 2.5981-0.5 3.4641 0l6.9282 4c0.86603 0.5 2.5981 0.5 3.4641 0l3.4641-2 1.7321 1c3.4641 2-6.0622 7.5-9.5263 5.5l-7.7942-4.5-0.86602 0.5z" fill="#ffd13e"/>
<ellipse cx="13.856" cy="27" rx=".86603" ry=".5" fill="#997d25" fill-rule="evenodd"/>
<path d="m18.187 25.5-1.732 1c-2.9452 1.7004-10.273-2.0206-10.273-4.4027l4.458e-4 -2.9823 7.6741-3.1151 8.6603 4 9.4076-0.90562-0.0011 3.0029c0 2.3821-7.3274 6.1031-10.273 4.4027l-3.4641-2z" fill="#997d25"/>
<path d="m18.187 22.5-1.732 1c-3.4641 2-12.99-3.5-9.5263-5.5l5.1962-3c0.86602-0.5 2.5981-0.5 3.4641 0l6.9282 4c0.86603 0.5 2.5981 0.5 3.4641 0l3.4641-2 1.7321 1c3.4641 2-6.0622 7.5-9.5263 5.5l-7.7942-4.5-0.86602 0.5z" fill="#ffd13e"/>
<ellipse cx="13.856" cy="22" rx=".86603" ry=".5" fill="#997d25" fill-rule="evenodd"/>
<path d="m18.187 20.5-1.732 1c-2.9452 1.7004-10.273-2.0206-10.273-4.4027l4.458e-4 -2.9823 7.6741-3.1151 8.6603 4 9.4076-0.90562-0.0011 3.0029c0 2.3821-7.3274 6.1031-10.273 4.4027l-3.4641-2z" fill="#997d25"/>
<path d="m18.187 17.5-1.732 1c-3.4641 2-12.99-3.5-9.5263-5.5l5.1962-3c0.86602-0.5 2.5981-0.5 3.4641 0l6.9282 4c0.86603 0.5 2.5981 0.5 3.4641 0l3.4641-2 1.7321 1c3.4641 2-6.0622 7.5-9.5263 5.5l-7.7942-4.5-0.86602 0.5z" fill="#ffd13e"/>
<ellipse cx="13.856" cy="17" rx=".86603" ry=".5" fill="#997d25" fill-rule="evenodd"/>
</g>
<g fill="none" stroke="#000" stroke-linecap="square" stroke-width="2">
<g fill="none" stroke="#000" stroke-linecap="square" stroke-width="2">
<path d="m6 30v-24h6a6 6 0 0 1 0 12h-6"/>
<path d="m24 30v-24h6a6 6 0 0 1 0 12h-6"/>
<path d="m42 12v6a6 6 0 0 0 6 6h6m0-12v12a6 6 0 0 1-6 6h-6"/>
<path d="m60 6v24h6a6 6 0 0 0 6-6v-12a6 6 0 0 0-6-6z"/>
<path d="m78 18v12h6a6 6 0 0 0 0-12h-6v-12h6a6 6 0 0 1 0 12"/>
</g>
</g>
</svg>
